<svg preserveAspectRatio="none" overflow="visible" style="display: block;" width="3890.7" height="3239.93" viewBox="0 0 3890.7 3239.93" fill="none" xmlns="http://www.w3.org/2000/svg">
<g>
<path d="M3878.94 2278.35C3364.07 2121.57 3097.71 2053.53 2921.39 2011.39C2748.95 1970.94 2666.55 1956.4 2609.12 1945.53C2500.16 1924.74 2485.13 1920.84 2458 1901.6C2432.97 1878.58 2426.15 1864.57 2381.68 1761.42C2358.39 1707.37 2325.98 1629.34 2248.64 1469.09C2168.83 1305.48 2044.09 1059.68 1779.14 592.692C2043 1057.04 2167.97 1302.35 2248.04 1465.84C2325.69 1626.03 2358.43 1704.41 2381.93 1758.85C2426.58 1862.07 2434.08 1876.39 2459.3 1898.9C2487.77 1918.49 2503.58 1922.21 2615.7 1942.25C2674.46 1952.77 2759.09 1966.85 2933.57 2006C3111.77 2046.76 3379.84 2112.6 3890.7 2263.62C3886.77 2268.52 3882.86 2273.44 3878.94 2278.35Z" fill="url(#paint0)"/>
<path d="M3623.07 2583.42C3150.24 2274.46 2916.61 2136.3 2764.07 2048.88C2615.56 1964.71 2548.13 1931.26 2500.96 1906.97C2411.19 1859.83 2400.68 1854.47 2381.42 1831.7C2364.96 1806.03 2363.06 1794.39 2343.55 1693.73C2333.63 1641.09 2320.85 1566.21 2282.69 1399.05C2242.57 1227.14 2177.07 962.961 2016.6 422.437C2176.7 960.337 2242.52 1224.26 2282.87 1396.2C2321.3 1563.49 2334.27 1638.8 2344.16 1691.67C2363.78 1792.43 2366.12 1804.45 2382.83 1829.74C2403.13 1853.11 2414.16 1858.5 2506.7 1905.58C2555.17 1929.98 2624.66 1963.52 2775.52 2046.95C2930.28 2133.51 3166.44 2269.96 3638.18 2572.14C3633.12 2575.9 3628.1 2579.66 3623.07 2583.42Z" fill="url(#paint1)"/>
<path d="M3859.94 2104.78C3282.16 1996.84 3017.81 1959.27 2848.95 1937.27C2685.95 1916.91 2618.44 1912.12 2570.16 1907.83C2477.04 1898.16 2467.92 1898.4 2443.56 1886.86C2420.48 1871.89 2415.99 1863.94 2357.96 1789.33C2328.24 1750.3 2288.07 1695.1 2184 1567.14C2075.44 1435.11 1902.98 1230.31 1505.38 798.355C1901.68 1228.25 2074.35 1432.79 2183.14 1564.84C2287.5 1692.87 2328.01 1748.39 2357.6 1787.53C2415.74 1862.21 2420.67 1870.27 2443.8 1884.87C2469.16 1896.53 2478.61 1896.17 2573.78 1904.73C2623.28 1908.72 2692.49 1912.8 2857.3 1931.52C3027.83 1951.8 3293.97 1986.71 3869.03 2088.26C3865.99 2093.77 3862.97 2099.27 3859.94 2104.78Z" fill="url(#paint2)"/>
<path d="M3793.27 2168.24C3204.72 2018.51 2948.23 1964.47 2786.5 1932.04C2631.35 1901.82 2570.94 1893.21 2526.94 1886.04C2440.94 1870.1 2433.71 1870.87 2411.94 1859.67C2391.44 1845.51 2388.73 1838.73 2333.48 1770.1C2305.6 1734.38 2269.02 1684.95 2168.25 1562.39C2062.41 1435.14 1892.38 1234.74 1480.69 788.903C1891.27 1232.83 2061.52 1433.07 2167.58 1560.39C2268.63 1683.07 2305.51 1732.81 2333.07 1768.51C2388.46 1837.23 2391.47 1844.11 2412.05 1857.99C2434.65 1869.3 2442.12 1868.49 2529.81 1883.41C2575.08 1890.45 2636.95 1898.47 2793.91 1927.12C2957.32 1957.9 3215.8 2009.27 3802.89 2152.04C3799.67 2157.42 3796.48 2162.82 3793.27 2168.24Z" fill="url(#paint3)"/>
<path d="M1288.56 2296.11C1802.93 1943.47 2009.26 1790 2136.88 1693.49C2257.86 1600.91 2300.14 1565.31 2332.95 1539.17C2362.85 1514.91 2383.33 1500.08 2394.19 1491.53C2405.9 1482.75 2407.99 1480.25 2420.69 1475.21C2434.33 1470.73 2437.98 1471.23 2452.97 1470.39C2467.17 1469.92 2492.7 1468.12 2531.56 1467.56C2573.78 1466.59 2629.43 1466.85 2782.14 1460.41C2942.44 1452.72 3199.81 1438.33 3820.37 1379.28C3201.74 1438.68 2944.29 1453.29 2783.79 1461.08C2630.8 1467.63 2574.76 1467.37 2532.42 1468.33C2493.49 1468.84 2468.2 1470.57 2454.21 1471.02C2439.44 1471.82 2435.97 1471.32 2422.98 1475.68C2409.64 1481.08 2406.93 1483.94 2394.87 1493.13C2383.61 1502.1 2363.01 1517.36 2332.82 1542.52C2299.82 1569.51 2257.15 1606.42 2136.29 1701.31C2008.94 1800.1 1803.42 1956.87 1295.03 2313.8C1292.89 2307.93 1290.72 2302.01 1288.56 2296.11Z" fill="url(#paint4)"/>
<path d="M3137.63 2832.71C2762.63 2317.71 2607.04 2118.96 2510.38 1997.05C2418.27 1882.21 2385.08 1844.19 2359.95 1813.69C2336.89 1786.24 2321.84 1766.22 2313.64 1756.54C2305.04 1745.81 2303.29 1745.42 2297.55 1733.27C2292.22 1720.1 2292.95 1718.03 2290.77 1704.04C2289.07 1691.03 2284.47 1666.09 2279.86 1630.21C2274.44 1590.81 2269 1540.38 2246.99 1394.39C2222.88 1240.29 2182.2 990.638 2057.77 365.986C2182.45 988.945 2223.29 1238.68 2247.5 1392.97C2269.61 1539.23 2275.1 1590.03 2280.48 1629.49C2285.06 1665.4 2289.56 1690.05 2291.17 1702.79C2293.25 1716.49 2292.45 1718.28 2297.57 1730.72C2303.73 1743.54 2305.87 1744.58 2314.86 1755.66C2323.48 1765.74 2338.97 1785.85 2362.82 1813.51C2388.73 1844.11 2423.06 1882.33 2517.36 1996.84C2616.22 2118.28 2775.05 2316.01 3154.87 2825.06C3149.12 2827.63 3143.37 2830.17 3137.63 2832.71Z" fill="url(#paint5)"/>
<path d="M1329.01 2464.3C1816.72 2037.93 1998.53 1869.09 2109.27 1765.28C2212.97 1667.05 2245.59 1633.86 2272.68 1607.75C2296.8 1584.13 2315.47 1567.53 2323.75 1559.13C2333.16 1550.08 2332.19 1549.23 2343.36 1542.14C2355.64 1535.19 2356.46 1536.17 2369.29 1531.91C2381.02 1528.36 2404.77 1519.56 2437.24 1509.3C2473.25 1497.64 2518.06 1484.48 2653.89 1439.23C2797.94 1390.43 3032.98 1309.52 3638.81 1080.29C3034.46 1309.63 2799.32 1390.68 2655.11 1439.58C2519.04 1484.94 2473.9 1498.17 2437.87 1509.8C2405.4 1520 2381.96 1528.65 2370.55 1532.02C2358.06 1536.1 2357.57 1534.91 2346.07 1541.52C2334.18 1549.16 2334.53 1550.47 2324.79 1559.95C2316.15 1568.81 2297.42 1585.85 2273.22 1610.2C2246.16 1637 2213.55 1671.16 2110.5 1771.4C2000.57 1877.24 1820.2 2049.17 1338.75 2480.42C1335.52 2475.06 1332.27 2469.69 1329.01 2464.3Z" fill="url(#paint6)"/>
<path d="M2207.74 3001.15C2249.01 2346.35 2258.45 2102.01 2263.67 1953.43C2267.96 1814.22 2268.04 1770.75 2268.97 1734.58C2269.6 1702.4 2271.07 1677.4 2271 1666.33C2271.25 1653.79 2269.96 1655.17 2272.32 1642.26C2275.42 1628.55 2276.22 1629.67 2281.04 1617.57C2285.58 1606.89 2294.14 1582.99 2306.31 1552.91C2319.75 1519.1 2336.81 1479.03 2387.73 1349.15C2441.48 1210.28 2529.08 981.588 2748.66 363.349C2530.03 980.839 2442.46 1209.64 2388.68 1348.68C2337.68 1478.78 2320.46 1519.11 2306.99 1552.9C2294.81 1582.91 2286.35 1606.45 2281.88 1616.69C2277.16 1628.38 2276.44 1626.76 2273.61 1639.58C2271.17 1653.43 2272.35 1652.85 2272.18 1665.95C2272.32 1677.63 2271.11 1702.99 2270.93 1735.63C2270.49 1772.19 2271.07 1816.14 2268.68 1956.11C2265.46 2105.39 2259.29 2350.69 2226.18 3004.88C2220.06 3003.63 2213.9 3002.38 2207.74 3001.15Z" fill="url(#paint7)"/>
<path d="M3104.06 2778.16C2705.79 2249.24 2556.95 2058.78 2466.56 1943.65C2381.86 1836.51 2355.62 1804.71 2333.74 1777.17C2314.29 1752.95 2299.16 1732.91 2292.35 1724.83C2284.7 1715.38 2285.4 1717.89 2278.44 1706.87C2271.33 1694.78 2272.9 1695.93 2267.75 1684.33C2263.45 1674.09 2252.43 1651.09 2239.77 1622.48C2225.32 1590.24 2209.18 1552.3 2152.99 1427.64C2092.35 1294.3 1991.65 1074.24 1705.37 477.208C1991.95 1073.27 2092.71 1293.38 2153.42 1426.87C2209.66 1551.69 2225.88 1589.89 2240.28 1622.12C2252.87 1650.66 2263.71 1673.31 2267.75 1683.14C2272.64 1694.32 2270.74 1692.67 2277.4 1703.89C2284.96 1715.71 2284.73 1713.85 2292.82 1723.69C2300.09 1732.18 2315.7 1752.33 2335.71 1776.55C2358.16 1804.01 2385.07 1835.61 2471.58 1941.93C2563.83 2056.13 2715.65 2245.02 3120.15 2768.29C3114.78 2771.6 3109.42 2774.87 3104.06 2778.16Z" fill="url(#paint8)"/>
<path d="M1470.13 2713.85C1870.18 2181.41 2012.19 1988.11 2097.78 1871.3C2177.23 1762.39 2200.25 1729.97 2220.57 1702.04C2238.36 1677.46 2253.5 1657.31 2259.34 1648.92C2266.28 1639.25 2263.94 1641.34 2272.24 1631.35C2281.4 1620.74 2280.19 1622.84 2288.96 1613.97C2296.65 1606.39 2314.31 1587.86 2335.77 1566.14C2360.06 1541.42 2388.22 1513.42 2482.65 1417.12C2583.86 1313.48 2751.34 1141.54 3210.86 659.469C2752.16 1141.72 2584.67 1313.69 2483.36 1417.41C2388.8 1513.78 2360.45 1541.89 2336.18 1566.57C2314.78 1588.2 2297.42 1606.43 2290.06 1613.6C2281.62 1622.05 2283.22 1619.4 2274.78 1629.28C2265.89 1640.12 2267.75 1638.66 2260.58 1648.89C2254.48 1657.85 2239.37 1678.5 2221.78 1703.55C2201.74 1731.93 2179.16 1764.79 2101.11 1875.04C2017.03 1993.25 1877.51 2188.82 1484.55 2726.01C1479.74 2721.95 1474.94 2717.89 1470.13 2713.85Z" fill="url(#paint9)"/>
<path d="M3534.91 2144.29C2908.15 1913.67 2683.62 1831.89 2548.2 1782.63C2422.28 1736.91 2385.49 1723.71 2353.3 1712.02C2325.08 1701.81 2301.37 1693.09 2291.9 1689.73C2280.8 1685.73 2283.94 1687.09 2271.83 1682.43C2258.79 1677.32 2261.31 1678.17 2249.89 1673.42C2240.08 1669.3 2216.33 1659.61 2188.46 1648.05C2156.73 1634.93 2120.78 1619.9 1996.99 1568.72C1863.82 1513.77 1642.84 1422.67 1024.57 1170.15C1642.98 1421.94 1863.96 1513.03 1997.2 1568.04C2121.04 1619.29 2157.14 1634.44 2188.79 1647.56C2216.52 1659.1 2239.91 1668.62 2249.17 1672.55C2260.06 1677.1 2256.83 1676.06 2268.93 1680.71C2282.05 1685.63 2279.65 1684.54 2291.35 1688.56C2301.44 1691.98 2325.62 1700.53 2354.17 1710.4C2386.64 1721.65 2423.57 1734.26 2550.17 1778.19C2686.3 1825.55 2912.09 1904.22 3541.64 2126.69C3539.4 2132.56 3537.16 2138.42 3534.91 2144.29Z" fill="url(#paint10)"/>
<path d="M2430.29 2995C2340.71 2333.33 2309.66 2096.27 2291.02 1953.29C2273.79 1820.31 2268.95 1781.44 2264.56 1747.44C2260.74 1717.63 2257.36 1692.62 2256.16 1682.62C2254.69 1670.91 2255.4 1674.22 2253.4 1661.43C2251.15 1647.6 2251.39 1650.23 2249.06 1638.07C2247 1627.62 2242.37 1602.38 2236.72 1572.73C2230.32 1538.99 2222.85 1500.72 2197.92 1369.1C2171.22 1227.52 2127.04 992.595 2006.47 335.865C2127.77 992.609 2171.95 1227.49 2198.64 1369.12C2223.54 1500.79 2230.96 1539.21 2237.34 1572.86C2242.95 1602.35 2247.54 1627.18 2249.47 1637.05C2251.69 1648.64 2251.26 1645.24 2253.43 1658.03C2255.69 1671.85 2255.12 1669.26 2256.87 1681.51C2258.33 1692.05 2262.1 1717.43 2266.38 1747.29C2271.26 1781.26 2276.68 1819.83 2295.79 1952.36C2316.43 2094.89 2350.77 2331.4 2448.9 2991.99C2442.69 2992.97 2436.48 2993.99 2430.29 2995Z" fill="url(#paint11)"/>
<path d="M3003.11 2743.93C2622.07 2198.22 2486.88 1999.65 2405.39 1879.57C2329.76 1767.58 2307.81 1734.09 2288.45 1705.36C2271.5 1680.03 2257.09 1659.36 2251.56 1650.74C2244.96 1640.79 2247.25 1642.88 2239.24 1632.64C2230.39 1621.77 2231.46 1623.87 2222.85 1614.79C2215.3 1607.03 2198.07 1588.1 2177.06 1565.9C2153.3 1540.64 2125.66 1512.02 2033.3 1413.65C1934.34 1307.77 1770.65 1132.15 1322.68 639.926C1771.49 1131.99 1935.13 1307.56 2034.08 1413.46C2126.41 1511.85 2154.05 1540.57 2177.74 1565.77C2198.62 1587.85 2215.62 1606.46 2222.77 1613.75C2230.98 1622.37 2229.36 1619.66 2237.63 1629.67C2246.36 1640.63 2244.53 1639.07 2251.61 1649.35C2257.63 1658.32 2272.56 1679.11 2289.89 1704.19C2309.64 1732.62 2331.87 1765.42 2408.86 1875.99C2491.82 1994.61 2629.54 2191 3017.79 2732.11C3012.9 2736.06 3008 2739.99 3003.11 2743.93Z" fill="url(#paint12)"/>
<path d="M1353.49 2741.03C1775.78 2232 1934.02 2048.45 2030.17 1937.46C2120.32 1834.13 2148.4 1803.35 2171.74 1776.76C2192.49 1753.36 2208.57 1734.06 2215.81 1726.29C2223.93 1717.2 2223.24 1719.64 2230.65 1708.9C2238.24 1697.1 2236.69 1698.07 2242.26 1686.61C2246.93 1676.46 2258.76 1653.88 2272.39 1625.66C2287.95 1593.89 2305.38 1556.4 2365.87 1433.64C2431.11 1302.37 2539.4 1085.86 2846.35 500.027C2539.68 1086.84 2431.47 1303.29 2366.23 1434.51C2305.74 1557.21 2288.24 1594.71 2272.72 1626.37C2259.16 1654.39 2247.56 1676.68 2243.2 1686.3C2237.95 1697.25 2239.95 1695.55 2232.98 1706.57C2225.11 1718.18 2225.49 1716.3 2217.22 1725.93C2209.82 1734.23 2193.77 1754.05 2173.44 1777.72C2150.58 1804.55 2123.34 1835.31 2035.05 1939.42C1940.8 2051.31 1785.47 2236.54 1369.22 2751.43C1363.98 2747.97 1358.74 2744.5 1353.49 2741.03Z" fill="url(#paint13)"/>
<path d="M516.934 112.973C1023.46 528.293 1209.18 688.641 1321.91 786.66C1427.18 879.033 1459.44 909.088 1486.73 933.306C1510.89 955.043 1530.17 971.006 1538.28 978.685C1547.65 987.092 1545.85 987.243 1556.93 994.263C1569.14 1001.27 1569 1000 1581.27 1004.62C1592.3 1008.47 1615.74 1018.21 1646.26 1029.44C1680.38 1042.23 1721.7 1056.53 1852.23 1106.23C1991.27 1159.87 2219.54 1248.89 2823.62 1502.19C2218.32 1249.08 1990.15 1160.17 1851.16 1106.58C1720.72 1056.92 1679.46 1042.55 1645.46 1029.81C1615.13 1018.67 1592 1009.1 1581.51 1005.56C1569.75 1001.25 1570.64 1002.95 1559.2 996.504C1547.25 989.088 1548.54 988.718 1538.65 980.202C1530.04 972.43 1510.24 956.525 1485.9 935.273C1458.41 911.607 1426.31 882.53 1320.42 792.144C1206.95 696.143 1019.73 538.837 507.258 129.16C510.489 123.755 513.704 118.363 516.934 112.973Z" fill="url(#paint14)"/>
<path d="M1435.44 2846.11C1794.84 2308.89 1939.75 2106.19 2029.14 1982.44C2113.96 1866.29 2143.28 1829.1 2165.98 1798.61C2186.64 1771.35 2200.73 1750.72 2208.1 1741.36C2215.92 1730.82 2217.02 1731.55 2222.59 1719.52C2227.85 1706.4 2226.85 1705.53 2229.32 1692.14C2231.25 1679.92 2236.63 1655.18 2242.23 1621.49C2248.72 1584.13 2255.46 1537.69 2281.24 1396.68C2309.41 1247.08 2356.66 1002.88 2498.9 372.315C2356.98 1004.32 2309.87 1248.39 2281.74 1397.91C2256 1538.81 2249.22 1585.14 2242.76 1622.37C2237.22 1655.83 2231.96 1680.26 2230.26 1691.92C2228.03 1704.78 2229.36 1704.87 2224.54 1717.2C2218.74 1730.07 2217.53 1729.8 2209.71 1740.84C2202.35 1750.65 2188.39 1771.78 2168.33 1799.09C2146.26 1829.64 2118.04 1866.48 2035.37 1982.89C1948.16 2107.05 1806.5 2310.77 1452.8 2853.5C1447 2851.02 1441.21 2848.56 1435.44 2846.11Z" fill="url(#paint15)"/>
<path d="M7.60645 1019.17C622.986 1176.35 866.309 1247.85 1016.31 1292.98C1158.17 1336.54 1206.72 1353.73 1244.81 1366.04C1279.35 1377.54 1303.53 1384.17 1315.7 1388.27C1328.95 1392.36 1330.17 1393.92 1343.6 1394.71C1357.83 1394.72 1359.73 1393.32 1373.62 1390.03C1386.45 1386.67 1411.27 1381.43 1446.32 1371.98C1484.92 1361.93 1533.87 1347.65 1677.45 1312.37C1829.28 1275.97 2075.76 1218.56 2699.21 1096.46C2074.29 1219.45 1827.97 1276.98 1676.27 1313.4C1532.85 1348.69 1484.02 1362.89 1445.6 1372.9C1410.78 1382.3 1386.29 1387.54 1374.06 1390.93C1360.72 1394.25 1359.66 1395.72 1346.24 1395.83C1332.04 1395.13 1330.44 1393.66 1316.82 1389.77C1304.3 1385.87 1279.75 1379.55 1245.46 1368.69C1207.63 1357.07 1159.96 1340.9 1018.73 1299.51C869.241 1256.61 626.196 1188.49 7.1575 1038.03C7.29091 1031.73 7.44871 1025.45 7.60645 1019.17Z" fill="url(#paint16)"/>
<path d="M776.642 2215.14C1369.3 2029.07 1618.77 1961.43 1774.73 1920.53C1923.62 1882.39 1978.99 1870.96 2020.45 1861.25C2058.7 1852.66 2083.12 1845.74 2096.75 1842.47C2111.05 1838.68 2114.56 1838.54 2126.38 1831.61C2138.33 1823.59 2140.46 1820.27 2150.4 1808.85C2159.58 1797.8 2176.57 1778.63 2200.77 1748C2227.35 1714.98 2261.17 1670.42 2359.46 1553.06C2463.31 1430.5 2631.62 1235.14 3055.33 780.491C2630.72 1236.89 2462.63 1432.31 2358.93 1554.83C2260.83 1672.1 2227.1 1716.48 2200.66 1749.36C2176.66 1779.8 2159.9 1798.79 2151.21 1809.54C2141.75 1820.72 2140.33 1823.66 2129.06 1831.38C2116.74 1838.76 2113.07 1839.16 2098.65 1843.3C2084.92 1846.92 2060.44 1854.28 2022.91 1863.27C1982.15 1873.43 1928.27 1885.26 1781.22 1924.86C1627.01 1967.35 1379.64 2037.61 786.747 2231.04C783.374 2225.76 780.015 2220.44 776.642 2215.14Z" fill="url(#paint17)"/>
<path d="M2505.31 2924.82C2347.38 2341.61 2289.34 2084.57 2254.33 1921.97C2221.62 1765.77 2211.95 1704.03 2204.06 1659.3C2186.79 1572.15 2187.53 1564.84 2175.85 1542.89C2161.22 1522.33 2154.19 1519.28 2083.91 1465.73C2047.34 1438.66 1996.71 1403.17 1871.5 1305.36C1741.5 1202.66 1536.9 1037.65 1082.49 638.718C1538.85 1038.72 1743.57 1203.49 1873.55 1306.02C1998.71 1403.62 2049.14 1438.98 2085.37 1465.47C2155.28 1518.96 2162.03 1521.28 2176.49 1541.07C2188.47 1562.88 2188.04 1570.32 2206.11 1655.97C2214.74 1700.14 2224.89 1760.21 2259.09 1914.49C2295.69 2075.29 2356.36 2330.3 2521.29 2914.78C2515.96 2918.14 2510.63 2921.47 2505.31 2924.82Z" fill="url(#paint18)"/>
<path d="M603.069 1941.1C1185.86 1903.97 1454.22 1898.82 1625.97 1897.59C1791.88 1897.27 1861.19 1900.86 1910.61 1902.6C2005.96 1904.57 2015.15 1906.07 2041.16 1897.49C2066.24 1885.34 2072.22 1877.83 2138.38 1809.88C2172.42 1774.25 2218.77 1723.6 2336.67 1607.96C2459.41 1488.83 2653.71 1304.69 3095.26 921.431C2652.18 1306.59 2458.08 1490.99 2335.52 1610.18C2217.85 1725.83 2171.74 1776.29 2138.18 1811.75C2072.31 1879.26 2067.14 1886.62 2043.02 1898.72C2017.06 1907.69 2007.86 1906.52 1914.06 1905.73C1865.37 1904.83 1797.82 1902.08 1633.61 1904.23C1463.38 1907.36 1196.48 1915.38 610.301 1958.52C607.872 1952.7 605.471 1946.9 603.069 1941.1Z" fill="url(#paint19)"/>
<path d="M2339.9 2967.75C2245.6 2415.54 2212.02 2144.88 2192.66 1968.58C2174.64 1797.09 2170.86 1719.97 2167.43 1665.83C2160.13 1562.56 2159.56 1550.41 2146.26 1523.15C2129.17 1497.38 2118.97 1490.4 2033.57 1432.92C1988.8 1403.05 1924.55 1361.78 1785.51 1261.19C1642.93 1156.99 1425.57 993.483 992.674 636.303C1427.85 994.844 1645.57 1158.17 1788.25 1262.16C1927.31 1362.5 1991.34 1403.52 2035.98 1433.03C2120.79 1490.13 2130.73 1496.28 2147.63 1520.92C2161.4 1548.08 2162.33 1559.95 2170.72 1661.28C2174.84 1714.23 2179.34 1789.29 2198.94 1958.84C2219.95 2133.37 2256.08 2402.4 2356.21 2958.26C2350.77 2961.44 2345.34 2964.59 2339.9 2967.75Z" fill="url(#paint20)"/>
<path d="M1808.98 3042.3C1915.99 2520.45 1983.96 2252.91 2031.8 2076.46C2079.33 1904.03 2106.72 1822.69 2125.19 1765.77C2160.11 1657.75 2164.3 1642.13 2160.53 1608.49C2152.41 1574.95 2143.29 1561.5 2072.96 1473.27C2036.12 1426.99 1982.38 1361.28 1877.54 1217.43C1770.92 1069.89 1613.22 844.215 1327.53 392.969C1615.02 846.422 1773.28 1072.11 1880.12 1219.52C1985.17 1363.17 2038.81 1428.52 2075.72 1474.53C2145.59 1562.02 2154.75 1574.52 2163.17 1606.75C2167.51 1640.43 2163.92 1655.61 2130.91 1761.91C2113.61 1817.61 2087.7 1897.11 2042.3 2068.29C1996.55 2243.68 1931.31 2510.76 1827.51 3038.86C1821.34 3040.01 1815.16 3041.15 1808.98 3042.3Z" fill="url(#paint21)"/>
<path d="M3354.58 2099.52C2876.72 1851.85 2627.14 1736.58 2461.4 1663.14C2299.16 1592.04 2220.78 1562.78 2166.27 1541.67C2062.89 1501.43 2048.83 1494.86 2025.64 1471.02C2005.21 1443.84 2001.04 1428.82 1976.05 1319.31C1962.96 1261.93 1945.26 1179.3 1898.3 1007.68C1849.53 832.292 1771.49 567.915 1595.73 60.593C1770.88 565.125 1849.24 829.058 1898.29 1004.38C1945.57 1176.01 1963.53 1259.03 1976.74 1316.82C2001.91 1426.42 2006.68 1441.88 2027.4 1468.59C2051.83 1493.02 2066.71 1499.54 2173.34 1539.61C2229.21 1560.63 2309.87 1589.83 2474.36 1660.03C2642.2 1732.47 2893.85 1845.88 3368.8 2087.15C3364.06 2091.27 3359.31 2095.39 3354.58 2099.52Z" fill="url(#paint22)"/>
<path d="M3537.23 1801.17C2984.51 1684.83 2716.68 1640.87 2542.8 1614.75C2373.87 1590.19 2298.91 1583.49 2246.13 1577.98C2145.39 1566.63 2133.66 1565.45 2107.42 1551.21C2082.77 1533.26 2076.78 1523.1 2022.07 1436.39C1993.73 1390.94 1954.64 1325.8 1858.44 1183.88C1758.68 1038.25 1601.79 815.83 1256.12 370.372C1600.48 813.512 1757.57 1035.55 1857.56 1181.14C1954.07 1323.08 1993.49 1388.56 2021.91 1434.24C2076.73 1521.02 2083.3 1531.36 2108.03 1548.86C2135.43 1563.28 2147.66 1564.29 2250.97 1574.59C2304.99 1579.74 2381.9 1585.78 2552.77 1608.78C2728.4 1633.28 2997.98 1674.75 3547.19 1785.16C3543.86 1790.5 3540.54 1795.83 3537.23 1801.17Z" fill="url(#paint23)"/>
<path d="M3275.79 442.341C2898.03 892.643 2735.48 1104.47 2633.39 1240.76C2535.6 1372.75 2498.28 1429.21 2470.84 1469.16C2416.67 1545.53 2412.41 1553.59 2390.39 1569.14C2366.03 1581.89 2356.89 1581.91 2263.4 1595.82C2214.8 1602.53 2146.98 1610.42 1984.4 1638.23C1816.08 1667.95 1552.98 1717.61 981.445 1851.84C1550.55 1717.74 1813.52 1667.78 1981.97 1637.86C2144.76 1609.82 2213.01 1601.81 2261.65 1595.25C2355.24 1581.27 2364.69 1580.94 2388.76 1567.96C2411.36 1551.59 2415.69 1543.18 2469.89 1464.48C2497.67 1423.31 2535.21 1365.04 2632.46 1230.67C2733.87 1092.07 2894.97 877.389 3265.85 426.309C3269.17 431.653 3272.49 436.997 3275.79 442.341Z" fill="url(#paint24)"/>
<path d="M3603.5 1191.25C3019.46 1357.74 2770.59 1439.98 2614.47 1493.25C2465.16 1545.15 2408.61 1568.07 2366.97 1583.99C2284.62 1613.46 2278.75 1617.75 2254.3 1619.01C2229.46 1617.08 2223.73 1612.6 2141.44 1581.03C2099.39 1564.17 2042.92 1539.85 1894.19 1484.57C1738.71 1427.78 1490.99 1340.04 910.961 1161.64C1489.07 1338.96 1736.9 1426.46 1892.6 1483.18C2041.63 1538.42 2098.51 1562.88 2140.29 1579.87C2222.71 1611.43 2228.78 1615.85 2253.54 1617.5C2278.76 1615.91 2284.81 1611.47 2368.12 1580.27C2410.78 1563.59 2468.32 1539.42 2618.4 1485.26C2775.12 1429.7 3024.38 1344.15 3603.66 1172.39C3603.6 1178.69 3603.55 1184.97 3603.5 1191.25Z" fill="url(#paint25)"/>
<path d="M2581.16 109.132C2502.86 727.843 2480.44 984.003 2467.75 1143.51C2456.54 1295.43 2455.05 1350.69 2452.78 1392.58C2451.04 1431.04 2448.52 1456.21 2447.68 1470.01C2446.46 1484.59 2446.95 1487.81 2442.27 1500.65C2436.55 1513.83 2433.75 1516.23 2424.42 1527.98C2415.34 1538.91 2399.73 1559.19 2374.31 1588.58C2346.98 1620.79 2309.81 1662.19 2213.13 1780.58C2112.35 1905.47 1952.09 2107.36 1583.85 2610.34C1950.55 2108.58 2110.71 1906.5 2211.54 1781.38C2308.31 1662.7 2345.75 1620.99 2373.16 1588.72C2398.64 1559.28 2414.15 1539.24 2423.13 1528.48C2432.35 1516.92 2435.02 1514.66 2440.4 1502.04C2445.23 1488.49 2444.88 1484.57 2446.03 1469.45C2446.81 1455.08 2449.08 1429.54 2450.35 1390.26C2452.11 1347.67 2452.87 1291.24 2462.28 1137.88C2473.08 977.063 2492.5 719.307 2563.62 102.206C2569.45 104.51 2575.31 106.814 2581.16 109.132Z" fill="url(#paint26)"/>
<path d="M3218.7 2417.8C2723.25 2017.32 2521.57 1865.58 2396.66 1772.83C2277.98 1685.72 2236.09 1657.58 2203.92 1634.62C2174.55 1614.07 2154.84 1598.63 2144.41 1591.39C2133.34 1583.25 2131.53 1583.32 2122.86 1573.08C2114.31 1561.74 2114.47 1559.56 2108.74 1546.6C2103.73 1534.46 2092.83 1511.56 2079.11 1478.11C2063.69 1441.45 2045.38 1394.15 1986.36 1258.82C1923.2 1116.2 1819.34 885.564 1537.58 314.351C1819.14 883.857 1923.2 1114.53 1986.5 1257.3C2045.68 1392.86 2064.12 1440.52 2079.54 1477.25C2093.25 1510.76 2103.97 1533.4 2108.81 1545.29C2114.38 1557.99 2114.04 1559.92 2122.22 1570.62C2131.49 1581.41 2133.82 1581.87 2145.39 1590.25C2156.32 1597.76 2176.48 1613.18 2206.67 1633.72C2239.62 1656.57 2282.66 1684.62 2403.36 1770.85C2530.26 1862.58 2734.84 2012.5 3233.4 2405.99C3228.49 2409.92 3223.59 2413.86 3218.7 2417.8Z" fill="url(#paint27)"/>
<path d="M3472.31 2090.17C2867.7 1857.57 2633.54 1775.48 2490.07 1725.94C2354.82 1680.01 2310.25 1666.63 2274.51 1654.85C2242.37 1644.52 2218.98 1635.75 2207.68 1632.35C2195.28 1628.24 2194.99 1629.5 2183.5 1622.91C2171.62 1615.29 2172.1 1614.11 2162.36 1604.74C2153.74 1596.02 2134.88 1579.12 2110.67 1555.17C2083.56 1528.77 2051.03 1495.27 1947.66 1396.2C1837.31 1291.55 1656.12 1121.33 1170.81 692.324C1655.54 1119.99 1836.88 1290.2 1947.4 1394.95C2050.97 1494.16 2083.73 1527.93 2110.82 1554.38C2134.99 1578.35 2153.56 1595.05 2161.88 1603.57C2171.31 1612.72 2170.48 1613.71 2181.68 1620.8C2193.98 1627.74 2194.98 1626.82 2207.92 1631.02C2219.78 1634.53 2243.59 1643.15 2276.4 1653.2C2312.73 1664.63 2358.16 1677.56 2494.89 1721.96C2639.79 1769.85 2875.99 1849.23 3482 2074C3478.79 2079.4 3475.54 2084.79 3472.31 2090.17Z" fill="url(#paint28)"/>
<path d="M3448.46 2167.43C2849.38 1899.95 2623.74 1805.73 2486.33 1748.9C2357.39 1696.24 2316.7 1680.97 2283.12 1667.45C2253.18 1655.63 2230.29 1645.51 2219.88 1641.7C2208.22 1637.1 2209.05 1638.78 2197.8 1632.06C2186.03 1624.35 2187.37 1624.01 2177.7 1615.26C2169.29 1607.28 2149.88 1590.9 2125.95 1568.99C2098.97 1544.58 2067.39 1514.59 1963.48 1421.49C1852.15 1322.61 1668.49 1160.63 1165.95 738.837C1668.13 1159.45 1851.92 1321.46 1963.39 1420.44C2067.46 1513.69 2099.23 1543.92 2126.19 1568.33C2150.04 1590.24 2169.15 1606.39 2177.18 1614.15C2186.48 1622.66 2184.71 1622.77 2195.74 1629.91C2207.87 1637.04 2207.74 1635.72 2219.95 1640.45C2230.94 1644.41 2254.28 1654.39 2284.8 1665.97C2318.9 1679.15 2360.28 1693.98 2490.59 1745.11C2629.33 1800.3 2857.01 1891.8 3458.4 2151.41C3455.1 2156.76 3451.78 2162.09 3448.46 2167.43Z" fill="url(#paint29)"/>
<path d="M2783.67 2811.42C2494.64 2215.72 2385.25 2000.16 2318.72 1869.81C2256.23 1748.36 2236.61 1712.12 2220.42 1680.87C2206.01 1653.36 2195.01 1630.78 2189.87 1621.55C2184.19 1610.81 2184.37 1613.4 2179.68 1601.24C2175.03 1588 2176.35 1589.45 2173.53 1577.06C2171.29 1566.18 2164.9 1541.49 2157.97 1510.98C2150.01 1476.56 2141.46 1436.22 2110.31 1303.08C2076.47 1160.56 2020.01 925.234 1854 284.259C2020.49 924.332 2077 1159.73 2110.87 1302.4C2142.04 1435.72 2150.58 1476.32 2158.52 1510.72C2165.37 1541.14 2171.66 1565.46 2173.73 1575.88C2176.38 1587.79 2174.81 1585.82 2179.2 1598.11C2184.33 1611.17 2184.47 1609.29 2190.52 1620.51C2196.03 1630.23 2207.46 1653.02 2222.43 1680.64C2239.17 1711.9 2259.51 1748.1 2323.93 1869.09C2392.47 1998.9 2505.09 2213.5 2801.3 2804.84C2795.44 2807.05 2789.55 2809.23 2783.67 2811.42Z" fill="url(#paint30)"/>
<path d="M3569.44 1310.37C2924.61 1476.89 2693.03 1539.37 2553.27 1577.26C2423.24 1612.81 2385 1623.77 2351.7 1632.92C2322.47 1641.04 2298.07 1647.34 2288.27 1650.25C2276.8 1653.49 2279.94 1653.31 2267.23 1655.95C2253.46 1658.53 2255.71 1657.64 2243.31 1659.1C2232.58 1660.22 2207.21 1663.69 2176.89 1667.29C2142.48 1671.46 2103.01 1675.77 1969.13 1692.1C1825.36 1709.95 1587.22 1739.84 927.326 1829.89C1586.68 1739.18 1824.86 1709.29 1968.75 1691.44C2102.76 1675.11 2142.46 1670.84 2176.82 1666.69C2207.04 1663.15 2232 1659.72 2242.21 1658.72C2254.08 1657.37 2251.19 1658.46 2263.95 1655.99C2277.65 1653.06 2275.29 1653.04 2287.28 1649.52C2297.62 1646.33 2322.33 1639.61 2351.7 1631C2385.07 1621.34 2423.23 1609.74 2552.99 1572.26C2692.45 1532.34 2923.5 1466.55 3565.75 1291.88C3566.98 1298.04 3568.22 1304.21 3569.44 1310.37Z" fill="url(#paint31)"/>
<path d="M2960.4 2788.16C2603.42 2223.73 2475.01 2022.2 2397.55 1900.71C2325.45 1787.79 2304.29 1754.92 2285.85 1726.07C2269.67 1700.79 2256.18 1679.44 2250.71 1671.02C2244.34 1661.09 2245.99 1664.08 2239.23 1653.02C2231.98 1641.02 2233.47 1643.23 2227.29 1632.5C2222.02 1623.27 2209.07 1601.12 2193.98 1574.98C2176.8 1545.26 2157.41 1511.45 2090.34 1395.52C2018.12 1270.88 1898.21 1064.11 1561.26 487.479C1898.75 1063.61 2018.66 1270.38 2090.91 1395.11C2157.99 1511.15 2177.41 1545.13 2194.55 1574.8C2209.54 1600.83 2222.31 1622.62 2227.26 1631.38C2233.14 1641.62 2231.21 1638.83 2237.98 1649.88C2245.38 1661.77 2244.16 1659.44 2250.99 1669.76C2256.91 1678.61 2270.89 1700.11 2287.55 1725.3C2306.45 1753.99 2328.1 1786.47 2401.84 1898.38C2481.04 2018.79 2612.32 2218.64 2976.48 2778.29C2971.12 2781.59 2965.76 2784.87 2960.4 2788.16Z" fill="url(#paint32)"/>
<path d="M2746.37 430.973C2495.61 1049.81 2404.85 1270.99 2350.05 1404.37C2298.98 1528.34 2283.88 1564.49 2270.81 1596.19C2259.31 1623.96 2249.83 1647.37 2245.92 1656.64C2241.38 1667.53 2242.42 1664.3 2237.79 1676.4C2232.87 1689.52 2233.97 1687.13 2229.96 1698.85C2226.56 1708.94 2218.05 1733.15 2208.23 1761.68C2197.03 1794.15 2184.51 1831.07 2140.8 1957.72C2093.7 2093.87 2015.4 2319.74 1793.98 2949.65C2014.77 2319.35 2093.04 2093.53 2140.19 1957.34C2183.96 1830.68 2196.59 1793.65 2207.76 1761.28C2217.53 1732.9 2225.88 1709.06 2229.1 1699.53C2232.91 1688.37 2231.61 1691.52 2236.08 1679.36C2240.98 1666.23 2240.19 1668.77 2244.74 1657.26C2248.71 1647.39 2258.02 1623.48 2269.14 1595.44C2281.76 1563.53 2296.22 1527.36 2345.43 1402.84C2398.28 1268.87 2485.9 1046.52 2728.7 424.38C2734.6 426.573 2740.49 428.766 2746.37 430.973Z" fill="url(#paint33)"/>
<path d="M2876.86 2915.15C2587.85 2315.59 2486.1 2097.97 2424.84 1966.43C2368.05 1843.8 2351.73 1807.24 2337.21 1775.77C2324.52 1748.07 2313.6 1725.36 2309.52 1715.96C2304.59 1705.09 2306.52 1707.51 2300.26 1696.13C2293.25 1683.98 2293.97 1686.23 2286.92 1675.89C2280.7 1667.02 2266.73 1645.59 2249.53 1620.31C2230.1 1591.58 2207.39 1558.92 2131.92 1447.06C2051.14 1326.75 1917.6 1127.23 1553.96 569.803C1918.44 1127.23 2051.96 1326.66 2132.73 1447.01C2208.15 1558.88 2230.86 1591.65 2250.22 1620.3C2267.31 1645.42 2281.12 1666.52 2287.01 1674.86C2293.74 1684.68 2292.57 1681.75 2299.14 1692.95C2305.99 1705.16 2304.44 1703.33 2309.8 1714.6C2314.31 1724.42 2325.73 1747.33 2338.83 1774.86C2353.8 1806.07 2370.49 1842 2428.85 1963.45C2491.79 2093.8 2596.4 2309.65 2893.25 2905.82C2887.78 2908.94 2882.31 2912.05 2876.86 2915.15Z" fill="url(#paint34)"/>
<path d="M3416.15 1067.12C2831.61 1376.56 2615.33 1485.87 2484.1 1551.8C2361.35 1612.93 2323.65 1630.67 2291.93 1646.35C2263.83 1660.07 2241.6 1671.78 2231.94 1676.2C2220.96 1681.5 2222.53 1679.51 2211.59 1686.61C2200.07 1694.62 2201.89 1694.31 2192.37 1702.78C2184.17 1710.37 2164.64 1726.75 2141.26 1747.61C2114.77 1771.04 2084.34 1799.05 1981.6 1889.45C1871.22 1985.91 1688.52 2144.74 1181.32 2569.18C1688.66 2143.72 1871.25 1984.93 1981.61 1888.51C2084.33 1798.16 2114.82 1770.19 2141.24 1746.83C2164.46 1726.1 2183.68 1709.93 2191.38 1702.69C2200.42 1694.56 2197.91 1695.38 2208.57 1687.87C2220.27 1680.14 2219.2 1681.73 2230.53 1675.97C2240.53 1671.13 2262.92 1658.92 2290.75 1644.81C2322.12 1628.73 2359.03 1610.68 2480.37 1548.12C2610.18 1480.65 2824.42 1368.67 3405.61 1051.52C3409.1 1056.72 3412.62 1061.93 3416.15 1067.12Z" fill="url(#paint35)"/>
<path d="M3532.76 2230.24C2928.79 1976.69 2705.04 1876 2569.04 1814.22C2441.8 1755.72 2402.29 1736.12 2369.23 1720.7C2339.86 1706.76 2316.83 1696.96 2306.88 1691.91C2295.5 1686.52 2297.19 1685.87 2284.55 1682.3C2270.86 1679.07 2271.35 1680.25 2258.27 1679.32C2246.6 1678.78 2221.35 1676.11 2188.9 1674.07C2152.55 1671.55 2108.87 1669.62 1969.58 1659.23C1821.02 1647.49 1576.84 1627.31 925.591 1556.87C1577.95 1626.76 1821.99 1646.87 1970.49 1658.6C2109.69 1668.98 2153.32 1670.96 2189.55 1673.49C2221.8 1675.52 2246.7 1678.08 2257.76 1678.49C2270.27 1679.26 2268.93 1677.89 2281.72 1680.8C2295.29 1684.5 2294.15 1685.23 2306.06 1690.56C2316.53 1695.56 2340.06 1705.15 2369.45 1718.57C2402.54 1733.42 2441.62 1752.12 2568.88 1808.54C2705.02 1868.19 2929.35 1965.53 3537.39 2211.96C3535.85 2218.05 3534.31 2224.15 3532.76 2230.24Z" fill="url(#paint36)"/>
<path d="M2914.38 3007.89C2647.24 2419.33 2551.35 2189.35 2493.29 2048.16C2439.3 1914.85 2423.13 1870.34 2409.19 1834.97C2396.91 1803.06 2386.8 1780.2 2382.74 1769.01C2377.91 1756.8 2379.1 1756.26 2371.8 1745.18C2363.43 1733.8 2362.15 1734.19 2352.08 1725.04C2342.71 1716.96 2324.52 1699.33 2298.83 1676.83C2270.5 1651.61 2234.58 1621.44 2128.33 1525.19C2016.04 1422.41 1833.4 1253.57 1372.48 800.354C1834.79 1254.06 2017.38 1422.73 2129.63 1525.43C2235.8 1621.56 2271.61 1651.75 2299.83 1676.86C2325.36 1699.21 2343.35 1716.56 2352.37 1724.14C2362.11 1732.81 2362.89 1731.73 2370.83 1742.32C2378.71 1754.04 2377.84 1754.92 2383.08 1767.39C2387.55 1778.81 2398.14 1801.81 2410.79 1833.25C2425.11 1868.1 2441.56 1911.51 2496.92 2043.12C2556.46 2182.67 2654.94 2410.43 2929.77 2997.05C2924.65 3000.66 2919.51 3004.27 2914.38 3007.89Z" fill="url(#paint37)"/>
<path d="M3611.94 1812.04C2978.02 1772.65 2725.62 1747.9 2569.84 1731.61C2422.34 1715.32 2371.44 1707.51 2331.71 1702.55C2295.62 1697.71 2270.63 1695.73 2257.91 1693.96C2244.14 1692.42 2242.64 1691.12 2229.31 1692.85C2215.33 1695.49 2213.72 1697.24 2200.68 1703.07C2188.72 1708.77 2165.32 1718.56 2132.64 1734.4C2096.6 1751.48 2051.19 1774.66 1916.72 1836.15C1774.38 1900.29 1542.97 2002.76 953.337 2239.25C1544.26 2001.6 1775.48 1899.06 1917.71 1834.92C2052 1773.44 2097.3 1750.37 2133.18 1733.35C2165.62 1717.61 2188.71 1707.88 2200.1 1702.28C2212.58 1696.53 2213.36 1694.88 2226.52 1692.27C2240.59 1690.3 2242.44 1691.45 2256.55 1692.71C2269.59 1694.21 2294.88 1695.82 2330.59 1700.08C2369.93 1704.43 2419.78 1711.41 2566.25 1725.68C2721.12 1739.88 2972.62 1761.36 3608.88 1793.46C3609.92 1799.65 3610.93 1805.85 3611.94 1812.04Z" fill="url(#paint38)"/>
<path d="M3472.77 2507.16C2952.4 2167.95 2741.6 2018.34 2610.89 1923.96C2486.8 1833.27 2442.78 1797.79 2408.92 1771.96C2377.98 1747.89 2357.1 1733.44 2345.91 1725C2333.89 1716.37 2331.56 1713.74 2318.69 1709.02C2304.91 1704.9 2301 1705.36 2285.85 1704.96C2271.49 1704.89 2245.88 1703.96 2206.86 1704.75C2164.47 1705.23 2108.57 1707.43 1955.5 1706.16C1794.88 1703.9 1537.07 1698.17 916.763 1660.08C1539 1697.75 1796.7 1703.28 1957.21 1705.44C2110.1 1706.62 2165.8 1704.46 2208 1703.96C2246.75 1703.14 2272.06 1704 2285.89 1703.87C2300.54 1704.08 2303.7 1703.3 2316.83 1707.09C2330.37 1711.91 2333 1714.49 2345.37 1722.99C2356.89 1731.29 2378.14 1745.5 2408.94 1768.76C2442.69 1793.76 2486.08 1827.85 2610.12 1916.19C2740.94 2008.23 2952.44 2154.51 3478.64 2489.24C3476.67 2495.23 3474.71 2501.2 3472.77 2507.16Z" fill="url(#paint39)"/>
<path d="M3054.76 827.865C2641.64 1268.77 2453.48 1453.27 2333.56 1568.51C2217.87 1678.45 2170.43 1719.13 2136.53 1749.35C2071.46 1809.85 2064.85 1813.06 2052.33 1834.53C2042.53 1857.78 2043.64 1865.37 2035.02 1953.3C2031.22 1998.63 2027.63 2060.36 2010.25 2218.3C1991.2 2382.87 1958.38 2643.66 1857.86 3239.93C1958.27 2641.44 1990.83 2380.67 2009.73 2216.19C2026.97 2058.42 2030.55 1996.94 2034.04 1952.19C2042.8 1864.59 2041.23 1857.64 2050.46 1834.93C2062.71 1813.28 2069.27 1809.74 2132.64 1749.33C2165.68 1718.77 2211.46 1678.56 2324.72 1568.38C2442.28 1452.71 2627.32 1267.06 3037.86 819.537C3043.49 822.327 3049.13 825.103 3054.76 827.865Z" fill="url(#paint40)"/>
<path d="M3620.81 2092.49C3051.9 1960.71 2793.37 1888.59 2628.49 1840.47C2469.47 1793.14 2404.11 1769.79 2357.27 1753.94C2266.5 1724.68 2258.13 1720.6 2230.76 1721.35C2203.25 1725.79 2195.37 1731.26 2112.49 1777.36C2069.64 1801.72 2010.72 1836.92 1864.57 1913.83C1712.79 1992.71 1473.8 2113.28 940.803 2353.63C1475.82 2111.91 1714.71 1991.01 1866.32 1912.04C2012.23 1835.04 2070.89 1799.95 2113.22 1775.61C2195.71 1729.86 2202.77 1724.29 2229.36 1719.63C2256.8 1718.49 2265.28 1722.25 2354.91 1749.96C2401.28 1764.79 2465.2 1786.82 2623.12 1831.92C2787.08 1877.81 3045.03 1946.76 3618.92 2073.74C3619.55 2079.99 3620.19 2086.25 3620.81 2092.49Z" fill="url(#paint41)"/>
<path d="M3630.82 1991.46C3075.82 1915.21 2807.6 1865.79 2633.65 1831.2C2464.69 1796.77 2390.01 1777.19 2337.33 1764.15C2236.66 1740.04 2224.9 1736.92 2194.9 1741.41C2165.18 1749.94 2155.45 1757.56 2074.93 1821.72C2032.97 1855.42 1974.28 1904.28 1836.52 2006.59C1694.25 2111.22 1472.9 2269.28 1002.02 2574.64C1474.9 2267.54 1696.17 2109.05 1838.27 2004.28C1975.81 1901.85 2034.19 1853.14 2075.78 1819.44C2155.75 1755.74 2164.6 1748.12 2193.2 1739.42C2223.24 1734.47 2234.84 1737.16 2333.99 1759.64C2385.74 1771.64 2458.66 1789.94 2626.25 1822.29C2799.02 1854.76 3066.44 1901.28 3626.68 1973.05C3628.06 1979.2 3629.43 1985.34 3630.82 1991.46Z" fill="url(#paint42)"/>
<path d="M3632.17 1951.26C3101.48 1904.72 2827.93 1867.83 2647.16 1840.5C2470.42 1813.03 2386.47 1795.14 2327.81 1783.3C2216.51 1760.98 2200.52 1758.59 2167.52 1766.2C2135.14 1778.1 2122.83 1788.71 2043.21 1868.67C2001.46 1910.56 1942.33 1971.48 1811.44 2092.1C1677.08 2214.92 1470.96 2397.43 1055.38 2732.9C1472.93 2395.37 1679.02 2212.32 1813.22 2089.29C1943.89 1968.49 2002.65 1907.7 2044.14 1865.77C2123.05 1786.34 2134.42 1775.8 2165.48 1763.77C2198.44 1755.6 2213.94 1757.42 2323.3 1778.05C2380.63 1788.86 2462.56 1805.49 2637.81 1831C2817.3 1856.36 3090.09 1890.59 3626.6 1933.23C3628.47 1939.24 3630.32 1945.25 3632.17 1951.26Z" fill="url(#paint43)"/>
</g>
<defs>
<linearGradient id="paint0" x1="2457.71" y1="1901.39" x2="2837.86" y2="1424.45" gradientUnits="userSpaceOnUse">
<stop stop-color="white"/>
<stop offset="1"/>
</linearGradient>
<linearGradient id="paint1" x1="2381.2" y1="1831.41" x2="2831.12" y2="1494.47" gradientUnits="userSpaceOnUse">
<stop stop-color="white"/>
<stop offset="1"/>
</linearGradient>
<linearGradient id="paint2" x1="2443.23" y1="1886.68" x2="2689.48" y2="1439.18" gradientUnits="userSpaceOnUse">
<stop stop-color="white"/>
<stop offset="1"/>
</linearGradient>
<linearGradient id="paint3" x1="2411.61" y1="1859.46" x2="2644.16" y2="1466.42" gradientUnits="userSpaceOnUse">
<stop stop-color="white"/>
<stop offset="1"/>
</linearGradient>
<linearGradient id="paint4" x1="2421.64" y1="1474.87" x2="2559.33" y2="1850.97" gradientUnits="userSpaceOnUse">
<stop stop-color="white"/>
<stop offset="1"/>
</linearGradient>
<linearGradient id="paint5" x1="2297.08" y1="1732.2" x2="2610.69" y2="1593.62" gradientUnits="userSpaceOnUse">
<stop stop-color="white"/>
<stop offset="1"/>
</linearGradient>
<linearGradient id="paint6" x1="2344.5" y1="1541.46" x2="2491.22" y2="1784.39" gradientUnits="userSpaceOnUse">
<stop stop-color="white"/>
<stop offset="1"/>
</linearGradient>
<linearGradient id="paint7" x1="2272.63" y1="1640.82" x2="2492.12" y2="1685.04" gradientUnits="userSpaceOnUse">
<stop stop-color="white"/>
<stop offset="1"/>
</linearGradient>
<linearGradient id="paint8" x1="2277.63" y1="1705.55" x2="2416.8" y2="1620.28" gradientUnits="userSpaceOnUse">
<stop stop-color="white"/>
<stop offset="1"/>
</linearGradient>
<linearGradient id="paint9" x1="2273.28" y1="1630.1" x2="2351.33" y2="1695.77" gradientUnits="userSpaceOnUse">
<stop stop-color="white"/>
<stop offset="1"/>
</linearGradient>
<linearGradient id="paint10" x1="2270.29" y1="1681.83" x2="2284.81" y2="1644.02" gradientUnits="userSpaceOnUse">
<stop stop-color="white"/>
<stop offset="1"/>
</linearGradient>
<linearGradient id="paint11" x1="2213.66" y1="1666.19" x2="2253.68" y2="1659.67" gradientUnits="userSpaceOnUse">
<stop stop-color="white"/>
<stop offset="1"/>
</linearGradient>
<linearGradient id="paint12" x1="2159.23" y1="1694.88" x2="2238.67" y2="1630.97" gradientUnits="userSpaceOnUse">
<stop stop-color="white"/>
<stop offset="1"/>
</linearGradient>
<linearGradient id="paint13" x1="2095.99" y1="1617.94" x2="2232.1" y2="1707.92" gradientUnits="userSpaceOnUse">
<stop stop-color="white"/>
<stop offset="1"/>
</linearGradient>
<linearGradient id="paint14" x1="1672.71" y1="803.497" x2="1557.88" y2="995.694" gradientUnits="userSpaceOnUse">
<stop stop-color="white"/>
<stop offset="1"/>
</linearGradient>
<linearGradient id="paint15" x1="1962.8" y1="1607.33" x2="2223.95" y2="1718.51" gradientUnits="userSpaceOnUse">
<stop stop-color="white"/>
<stop offset="1"/>
</linearGradient>
<linearGradient id="paint16" x1="1353.53" y1="1053.1" x2="1344.89" y2="1395.78" gradientUnits="userSpaceOnUse">
<stop stop-color="white"/>
<stop offset="1"/>
</linearGradient>
<linearGradient id="paint17" x1="1913.51" y1="1493.9" x2="2128.03" y2="1832.04" gradientUnits="userSpaceOnUse">
<stop stop-color="white"/>
<stop offset="1"/>
</linearGradient>
<linearGradient id="paint18" x1="1789.85" y1="1784.31" x2="2176.79" y2="1541.57" gradientUnits="userSpaceOnUse">
<stop stop-color="white"/>
<stop offset="1"/>
</linearGradient>
<linearGradient id="paint19" x1="1847.37" y1="1426.92" x2="2042.42" y2="1898.96" gradientUnits="userSpaceOnUse">
<stop stop-color="white"/>
<stop offset="1"/>
</linearGradient>
<linearGradient id="paint20" x1="1662.19" y1="1804.42" x2="2147.93" y2="1521.44" gradientUnits="userSpaceOnUse">
<stop stop-color="white"/>
<stop offset="1"/>
</linearGradient>
<linearGradient id="paint21" x1="1563.69" y1="1718.49" x2="2163.3" y2="1607.38" gradientUnits="userSpaceOnUse">
<stop stop-color="white"/>
<stop offset="1"/>
</linearGradient>
<linearGradient id="paint22" x1="1372.67" y1="254.372" x2="3138.59" y2="2287.14" gradientUnits="userSpaceOnUse">
<stop stop-color="white"/>
<stop offset="1"/>
</linearGradient>
<linearGradient id="paint23" x1="1112.58" y1="600.977" x2="3398.67" y2="2023.79" gradientUnits="userSpaceOnUse">
<stop stop-color="white"/>
<stop offset="1"/>
</linearGradient>
<linearGradient id="paint24" x1="1110.91" y1="2060.93" x2="3400.32" y2="643.455" gradientUnits="userSpaceOnUse">
<stop stop-color="white"/>
<stop offset="1"/>
</linearGradient>
<linearGradient id="paint25" x1="909.314" y1="1380.56" x2="3601.93" y2="1400.76" gradientUnits="userSpaceOnUse">
<stop stop-color="white"/>
<stop offset="1"/>
</linearGradient>
<linearGradient id="paint26" x1="1761.41" y1="2680.41" x2="2749.88" y2="175.714" gradientUnits="userSpaceOnUse">
<stop stop-color="white"/>
<stop offset="1"/>
</linearGradient>
<linearGradient id="paint27" x1="1411.37" y1="415.944" x2="3099.87" y2="2513.45" gradientUnits="userSpaceOnUse">
<stop stop-color="white"/>
<stop offset="1"/>
</linearGradient>
<linearGradient id="paint28" x1="1102.45" y1="805.832" x2="3408.8" y2="2195.57" gradientUnits="userSpaceOnUse">
<stop stop-color="white"/>
<stop offset="1"/>
</linearGradient>
<linearGradient id="paint29" x1="1111.92" y1="825.859" x2="3399.35" y2="2246.52" gradientUnits="userSpaceOnUse">
<stop stop-color="white"/>
<stop offset="1"/>
</linearGradient>
<linearGradient id="paint30" x1="1786.43" y1="309.407" x2="2724.85" y2="2833.29" gradientUnits="userSpaceOnUse">
<stop stop-color="white"/>
<stop offset="1"/>
</linearGradient>
<linearGradient id="paint31" x1="935.507" y1="1870.71" x2="3575.76" y2="1341.85" gradientUnits="userSpaceOnUse">
<stop stop-color="white"/>
<stop offset="1"/>
</linearGradient>
<linearGradient id="paint32" x1="1552.04" y1="493.134" x2="2959.21" y2="2788.88" gradientUnits="userSpaceOnUse">
<stop stop-color="white"/>
<stop offset="1"/>
</linearGradient>
<linearGradient id="paint33" x1="1783.87" y1="2945.85" x2="2727.39" y2="423.871" gradientUnits="userSpaceOnUse">
<stop stop-color="white"/>
<stop offset="1"/>
</linearGradient>
<linearGradient id="paint34" x1="1590.16" y1="549.223" x2="2921.15" y2="2889.97" gradientUnits="userSpaceOnUse">
<stop stop-color="white"/>
<stop offset="1"/>
</linearGradient>
<linearGradient id="paint35" x1="1140.83" y1="2509.4" x2="3370.41" y2="999.587" gradientUnits="userSpaceOnUse">
<stop stop-color="white"/>
<stop offset="1"/>
</linearGradient>
<linearGradient id="paint36" x1="950.895" y1="1457.5" x2="3560.36" y2="2121.79" gradientUnits="userSpaceOnUse">
<stop stop-color="white"/>
<stop offset="1"/>
</linearGradient>
<linearGradient id="paint37" x1="1480.79" y1="724.131" x2="3030.44" y2="2926.22" gradientUnits="userSpaceOnUse">
<stop stop-color="white"/>
<stop offset="1"/>
</linearGradient>
<linearGradient id="paint38" x1="927.083" y1="2079.4" x2="3584.17" y2="1642.92" gradientUnits="userSpaceOnUse">
<stop stop-color="white"/>
<stop offset="1"/>
</linearGradient>
<linearGradient id="paint39" x1="976.195" y1="1478.65" x2="3535.09" y2="2316.89" gradientUnits="userSpaceOnUse">
<stop stop-color="white"/>
<stop offset="1"/>
</linearGradient>
<linearGradient id="paint40" x1="1661.32" y1="3143.26" x2="2849.89" y2="727.087" gradientUnits="userSpaceOnUse">
<stop stop-color="white"/>
<stop offset="1"/>
</linearGradient>
<linearGradient id="paint41" x1="916.087" y1="2109" x2="3595.15" y2="1838.37" gradientUnits="userSpaceOnUse">
<stop stop-color="white"/>
<stop offset="1"/>
</linearGradient>
<linearGradient id="paint42" x1="942.262" y1="2309.67" x2="3568.99" y2="1717.28" gradientUnits="userSpaceOnUse">
<stop stop-color="white"/>
<stop offset="1"/>
</linearGradient>
<linearGradient id="paint43" x1="968.618" y1="2450.37" x2="3542.63" y2="1659.78" gradientUnits="userSpaceOnUse">
<stop stop-color="white"/>
<stop offset="1"/>
</linearGradient>
</defs>
</svg>
